# xmcd
#
# Track frame offsets:
#	150
#	15190
#	28642
#	41392
#	55747
#	71422
#	84932
#	98037
#	114657
#	128125
#	142625
#
# Disc length: 2157 seconds
#
# Revision: 0
# Processed by: cddbd v1.5.1PL2 Copyright (c) Steve Scherf et al.
# Submitted via: dBpowerAMP V4.0
#
DISCID=78086b0b
DTITLE=Cletus T. Judd - The Essenshul Cletus T. Judd
DYEAR=1900
DGENRE=Country
TTITLE0=Gone Funky
TTITLE1=Indian In-Laws
TTITLE2=Stinkin' Problem
TTITLE3=If Shania Was Mine
TTITLE4=(She's Got A Butt) Bigger Than The Beatles
TTITLE5=Jackson (Alan That Is)
TTITLE6=Wives Do It All The Time
TTITLE7=First Redneck on the Internet
TTITLE8=Every Bulb in the House is Blown
TTITLE9=Did I Shave My Back For This
TTITLE10=Coronary Life
EXTD=
EXTT0=
EXTT1=
EXTT2=
EXTT3=
EXTT4=
EXTT5=
EXTT6=
EXTT7=
EXTT8=
EXTT9=
EXTT10=
PLAYORDER=
